<?xml version="1.0" encoding="utf-8"?>
<!-- Generator: Adobe Illustrator 23.0.1, SVG Export Plug-In . SVG Version: 6.00 Build 0)  -->
<svg version="1.1" id="Layer_1" xmlns="http://www.w3.org/2000/svg" xmlns:xlink="http://www.w3.org/1999/xlink" x="0px" y="0px"
	 viewBox="0 0 800 800" style="enable-background:new 0 0 800 800;" xml:space="preserve">
<style type="text/css">
	.st0{fill:#FFFFFF;}
</style>
<g>
	<g>
		
			<rect x="41.25" y="41.25" transform="matrix(-1 -4.489798e-11 4.489798e-11 -1 800 799.9999)" class="st0" width="717.5" height="717.5"/>
		<path d="M33.42,33.42h733.15v733.15H33.42V33.42z M750.93,49.07H49.07v701.86h701.86V49.07z"/>
	</g>
	<g>
		<g>
			<path class="st0" d="M446.95,399.65c-13.79-3.18-86.65-16.41-147.7-69.88s-44.31-142.94,28.06-199.59S495.95,160,500.88,161.59
				c0,0,23.44,76.88,36.65,136.52c13.21,59.64,76.26,143.83,86.16,161.58s52.82,106.5,52.82,106.5s3.3,14.91-17.83,0
				C637.55,551.28,446.95,399.65,446.95,399.65z"/>
			<path d="M654.17,572.59c-20.35-14.36-191.92-150.77-210.69-165.69c-0.44-0.1-0.91-0.2-1.41-0.31
				c-59.18-12.89-108.97-36.76-147.98-70.93c-27.15-23.78-40.99-54.88-40.02-89.94c1.22-44.27,26.16-88.63,68.42-121.7
				c29.28-22.92,65.28-27.05,107-12.3c32.38,11.45,59.1,31.27,70.51,39.73c1.52,1.13,3.21,2.38,4.03,2.94l3.14,1.01l1.19,3.91
				c0.24,0.77,23.68,77.85,36.8,137.11c10.1,45.62,50.77,106.79,72.62,139.66c6.09,9.17,10.5,15.79,12.74,19.81
				c9.9,17.75,51.28,103.28,53.03,106.91l0.4,0.82l0.2,0.89c0.98,4.43,0.31,10.81-4.8,14.22c-2.05,1.36-4.27,1.93-6.58,1.93
				C666.6,580.66,659.82,576.58,654.17,572.59z M490.67,164.02c-66.07-49-119.41-58.31-158.54-27.68
				c-38.58,30.19-61.33,70.22-62.42,109.81c-0.83,30.24,11.16,57.12,34.69,77.73c37.01,32.41,84.45,55.09,141.01,67.42
				c1.32,0.29,2.42,0.53,3.3,0.73l1.73,0.4l1.39,1.1c1.9,1.51,190.67,151.66,211.38,166.27c0.82,0.58,1.57,1.09,2.27,1.55
				c-10.88-22.42-40.7-83.67-48.61-97.84c-1.94-3.48-6.43-10.23-12.1-18.77c-22.41-33.71-64.13-96.47-74.86-144.94
				c-11.59-52.36-31.38-118.95-35.66-133.18C493.29,165.96,492.14,165.11,490.67,164.02z"/>
		</g>
		<path d="M590.06,194.18c0,0-95.21-14.03-216.47,20.04s-221.48,85.19-221.48,85.19l7.02-28.06l-26.06-9.02
			c0,0,73.16-50.11,106.23-60.13s281.61-51.11,286.62-50.11s77.17,4.01,77.17,4.01l-13.03,12.03V194.18z"/>
		<path d="M512.41,162.01l-4.74-37.49l35.15-49.97c0,0-199.83-22.76-270.94,23.62s-78.37,68.69-78.37,68.69l39.14,9.5l-24.62,55.92
			L512.41,162.01z"/>
		<path d="M345.6,199.37c0,0-4.08,94.96,22.47,148.08c26.56,53.12,73.66,54.68,73.66,54.68l217.74,356.9l-536.17,6.01l85.71-514.99
			c0,0,31.13-28.9,69.37-47.43S345.6,199.37,345.6,199.37z"/>
		<path d="M449.61,290.27c11.7,11.7,39.63,20.67,51.33,8.98c11.7-11.7,2.73-39.63-8.97-51.33c-11.7-11.7-30.66-11.7-42.36,0
			C437.92,259.61,437.92,278.57,449.61,290.27z"/>
	</g>
</g>
<path d="M502.08,265.75c-1.57,0.06,6.78-15.85,18.19-14.75c11.41,1.1,4.92,7.35,4.92,7.35l-23.3,22.58L502.08,265.75z"/>
</svg>
