<?xml version="1.0" standalone="no"?>
<!DOCTYPE svg PUBLIC "-//W3C//DTD SVG 20010904//EN"
 "http://www.w3.org/TR/2001/REC-SVG-20010904/DTD/svg10.dtd">
<svg version="1.0" xmlns="http://www.w3.org/2000/svg"
 width="522.000000pt" height="522.000000pt" viewBox="0 0 522.000000 522.000000"
 preserveAspectRatio="xMidYMid meet">
<metadata>
Created by potrace 1.11, written by Peter Selinger 2001-2013
</metadata>
<g transform="translate(0.000000,522.000000) scale(0.100000,-0.100000)"
fill="#000000" stroke="none">
<path d="M2410 5191 c-1180 -100 -2132 -959 -2345 -2115 -132 -718 47 -1457
493 -2040 97 -126 269 -305 392 -408 277 -233 657 -428 1004 -518 249 -64 345
-75 651 -75 301 1 406 12 634 70 518 131 992 424 1331 824 315 371 507 786
592 1277 30 175 33 605 5 782 -136 856 -656 1567 -1421 1943 -256 125 -557
215 -836 249 -119 14 -387 20 -500 11z m-904 -747 c12 -49 -43 -164 -79 -164
-6 0 -19 -8 -30 -17 -20 -18 -20 -17 -14 32 9 76 25 120 52 149 31 34 63 34
71 0z m2243 16 c24 -12 58 -93 67 -158 l7 -52 -40 22 c-50 27 -83 74 -90 127
-9 66 10 86 56 61z m-2471 -93 c36 -43 19 -158 -31 -207 l-32 -31 -8 38 c-25
116 25 256 71 200z m511 2 c36 -13 37 -16 15 -48 -26 -36 -74 -51 -170 -51
l-87 0 24 26 c28 31 47 41 114 65 60 22 63 22 104 8z m1726 -8 c54 -19 125
-66 125 -82 0 -12 -147 -11 -191 1 -34 9 -69 45 -69 69 0 9 43 29 68 30 7 1
37 -8 67 -18z m454 -2 c26 -28 35 -85 26 -166 -8 -73 -16 -76 -58 -17 -36 52
-48 141 -23 179 20 31 29 31 55 4z m-2859 -74 c26 -31 31 -104 13 -178 l-17
-70 -22 67 c-13 37 -26 86 -29 110 -11 68 22 110 55 71z m3030 -5 c14 -26 5
-91 -25 -176 l-23 -65 -17 65 c-12 44 -15 79 -11 108 12 77 52 112 76 68z
m-2685 -40 c-8 -13 -101 -82 -132 -99 -13 -6 -23 -8 -23 -3 0 15 72 93 94 102
30 12 68 12 61 0z m2393 -37 c18 -21 37 -46 43 -56 9 -17 8 -17 -10 -7 -42 22
-107 69 -126 91 l-20 22 40 -6 c30 -5 49 -16 73 -44z m-2202 -29 c16 -24 16
-26 -5 -47 -17 -18 -33 -22 -79 -22 -104 1 -182 10 -179 20 2 6 28 25 57 43
47 28 63 32 122 32 61 0 69 -2 84 -26z m2092 6 c20 -10 48 -28 61 -38 l24 -19
-39 -6 c-98 -16 -180 -18 -203 -5 -39 21 -48 44 -27 67 26 29 131 29 184 1z
m-2776 -30 c40 -31 58 -80 58 -158 0 -38 -5 -83 -11 -101 l-11 -31 -32 67
c-36 76 -60 178 -50 217 7 31 14 32 46 6z m3322 -2 c9 -36 -14 -137 -45 -201
-16 -32 -29 -64 -29 -72 0 -8 -4 -15 -9 -15 -18 0 -28 151 -15 219 7 36 54 91
77 91 8 0 17 -10 21 -22z m-3046 -125 c4 -27 9 -28 64 -6 90 36 186 15 158
-36 -16 -31 -51 -42 -160 -51 -73 -6 -108 -14 -148 -34 -28 -14 -61 -26 -73
-26 -19 0 -21 4 -16 35 15 92 165 192 175 118z m2828 -15 c49 -45 74 -85 74
-118 0 -28 -35 -26 -96 6 -39 21 -71 28 -153 35 -102 8 -145 23 -158 55 -8 21
15 43 53 50 30 6 76 -4 147 -32 12 -4 20 1 27 20 15 40 52 34 106 -16z m-3209
-37 c12 -11 33 -45 48 -75 23 -47 26 -63 20 -106 -4 -27 -11 -50 -15 -50 -15
0 -111 147 -125 190 -17 54 30 80 72 41z m3556 -3 c12 -19 -30 -109 -91 -192
l-35 -48 -13 48 c-13 47 -12 52 18 113 17 35 39 72 50 83 22 22 56 21 71 -4z
m-3093 -146 c0 -10 -7 -27 -15 -39 -17 -25 -143 -114 -229 -163 -57 -32 -58
-32 -51 -9 16 52 61 123 102 159 57 50 99 69 151 70 34 0 42 -3 42 -18z m2727
-33 c41 -32 67 -63 93 -111 19 -36 32 -70 28 -73 -14 -14 -249 138 -272 177
-30 50 -23 61 39 56 46 -4 64 -12 112 -49z m-3287 9 c18 -13 42 -34 52 -48 20
-27 47 -112 55 -170 3 -30 2 -32 -8 -15 -6 11 -51 59 -100 107 -87 84 -102
111 -77 136 18 18 41 15 78 -10z m3760 7 c19 -23 5 -45 -95 -147 -106 -107
-115 -105 -71 17 26 72 45 98 91 126 36 23 58 24 75 4z m-1730 -36 c143 -23
325 -86 415 -144 167 -106 289 -257 344 -425 48 -148 140 -537 152 -646 l11
-99 -60 -110 c-65 -118 -178 -283 -337 -490 -56 -71 -110 -146 -122 -165 -11
-19 -38 -64 -60 -100 -35 -58 -235 -441 -380 -731 -30 -58 -77 -164 -106 -235
-33 -80 -58 -129 -67 -129 -9 0 -35 52 -70 135 -59 143 -66 158 -290 595 -178
348 -247 463 -380 637 -160 208 -266 363 -332 484 l-60 109 7 75 c11 123 115
559 169 709 62 171 241 356 421 436 93 41 261 87 370 101 106 14 266 11 375
-7z m-1750 -24 c0 -45 -31 -107 -76 -152 -40 -40 -49 -31 -42 45 5 51 48 128
76 135 37 10 42 7 42 -28z m3174 14 c38 -30 66 -91 66 -142 0 -24 -3 -46 -6
-50 -8 -8 -61 41 -85 80 -39 63 -47 133 -15 133 7 0 25 -9 40 -21z m-3484
-161 c61 -61 90 -108 90 -146 0 -13 -28 9 -90 71 -62 62 -90 97 -90 114 0 38
24 27 90 -39z m3830 41 c0 -14 -33 -55 -87 -111 -74 -75 -89 -86 -91 -68 -5
31 41 103 100 154 58 51 78 57 78 25z m-3390 -133 c0 -24 -11 -49 -36 -83 -37
-49 -154 -173 -164 -173 -3 0 -4 20 -2 45 5 58 -16 60 -42 5 -10 -21 -29 -49
-42 -61 l-23 -22 -11 27 c-25 66 -6 146 48 204 39 42 69 42 84 1 l11 -31 51
50 c86 83 126 95 126 38z m2918 20 c15 -8 47 -35 71 -60 l45 -46 12 30 c17 38
46 39 81 3 56 -60 76 -145 50 -207 l-13 -29 -29 35 c-17 19 -39 50 -50 69
l-20 34 -5 -54 -5 -54 -78 82 c-92 96 -117 135 -117 179 0 36 14 41 58 18z
m-3472 -59 c48 -28 123 -106 148 -155 14 -29 24 -52 20 -52 -21 0 -155 82
-187 114 -69 71 -56 136 19 93z m4032 -16 c5 -32 -83 -116 -167 -159 -35 -18
-66 -31 -68 -29 -2 2 8 27 23 56 24 46 97 119 149 149 31 18 60 10 63 -17z
m-3935 -272 c29 -24 65 -59 78 -76 28 -38 45 -41 54 -10 20 63 98 93 111 42 3
-13 1 -39 -5 -56 -19 -55 -12 -53 33 8 86 117 167 158 174 87 2 -24 -7 -43
-41 -85 -24 -30 -59 -79 -79 -109 -19 -30 -43 -62 -52 -70 -16 -13 -20 -12
-32 5 -8 10 -15 39 -16 64 -1 37 -2 40 -5 14 -2 -18 -8 -33 -13 -33 -5 0 -14
-16 -21 -34 -15 -41 -25 -38 -50 19 -15 33 -26 44 -56 53 -62 19 -253 184
-253 218 0 14 10 16 59 12 52 -4 66 -9 114 -49z m3940 45 c24 -24 -176 -205
-248 -225 -24 -7 -39 -19 -46 -36 -13 -36 -49 -80 -49 -61 0 9 -9 27 -20 41
-11 14 -21 36 -21 49 -1 12 -5 1 -10 -26 -4 -27 -12 -53 -18 -59 -14 -14 -44
14 -89 83 -19 30 -52 75 -73 100 -30 36 -39 55 -39 83 0 34 2 37 28 37 36 0
91 -46 143 -121 23 -32 44 -58 46 -56 2 2 -2 18 -8 35 -6 17 -9 43 -7 59 2 22
9 29 31 31 33 4 60 -16 77 -59 15 -36 32 -37 50 -4 13 25 75 81 129 117 25 17
111 25 124 12z m-3417 -221 c9 -47 -19 -157 -61 -242 l-32 -64 -17 65 c-16 56
-16 73 -6 124 15 73 32 106 66 133 36 29 42 27 50 -16z m2783 11 c54 -45 77
-181 47 -279 l-11 -39 -29 58 c-53 108 -78 222 -60 270 8 22 18 20 53 -10z
m-3310 -57 c62 -26 80 -40 108 -80 19 -27 33 -50 31 -52 -5 -4 -213 50 -248
65 -17 7 -42 26 -56 43 -25 29 -25 32 -8 44 30 22 94 15 173 -20z m3950 24
c12 -8 13 -15 3 -35 -18 -41 -83 -68 -262 -111 -30 -8 -55 -13 -56 -12 -1 1
16 25 37 53 31 43 50 57 111 82 73 31 140 40 167 23z m-3685 -212 c14 -7 57
-61 100 -125 80 -120 100 -164 73 -164 -31 0 -68 20 -112 61 -90 83 -136 168
-120 219 7 23 23 25 59 9z m3310 -20 c12 -36 -19 -99 -89 -176 -73 -81 -155
-120 -155 -74 0 28 157 260 183 271 33 14 51 7 61 -21z m-3554 -50 c55 -15 85
-29 110 -54 19 -19 48 -39 64 -45 16 -6 27 -12 25 -14 -6 -6 -179 13 -234 25
-76 18 -113 36 -132 65 -14 22 -14 27 -2 35 23 15 90 10 169 -12z m3908 9 c17
-17 -2 -45 -47 -67 -39 -21 -163 -46 -266 -55 -54 -4 -58 -3 -41 10 11 8 24
14 30 14 6 0 27 16 47 36 27 26 54 40 105 54 80 21 155 25 172 8z"/>
<path d="M1919 3256 c-174 -47 -288 -228 -289 -460 0 -190 94 -368 231 -434
67 -32 177 -31 246 3 96 48 174 155 209 288 17 63 18 206 3 279 -45 214 -235
369 -400 324z"/>
<path d="M3120 3254 c-78 -21 -134 -57 -182 -117 -57 -72 -84 -137 -103 -242
-28 -165 17 -341 116 -450 70 -75 133 -105 226 -105 90 0 148 24 215 91 220
220 165 688 -95 804 -72 32 -113 36 -177 19z"/>
</g>
</svg>
